<?xml version="1.0" encoding="UTF-8" standalone="no"?>
<!DOCTYPE svg PUBLIC "-//W3C//DTD SVG 1.1//EN" "http://www.w3.org/Graphics/SVG/1.1/DTD/svg11.dtd">
<svg width="100%" height="100%" viewBox="0 0 1004 1182" version="1.1" xmlns="http://www.w3.org/2000/svg" xmlns:xlink="http://www.w3.org/1999/xlink" xml:space="preserve" xmlns:serif="http://www.serif.com/" style="fill-rule:evenodd;clip-rule:evenodd;stroke-linecap:round;stroke-linejoin:round;stroke-miterlimit:1.5;">
    <g id="sen54" transform="matrix(3.71429,0,0,5.37931,-510.405,-655.715)">
        <rect x="193.065" y="143.852" width="158.995" height="87.826" style="fill:none;stroke:rgb(0,255,0);stroke-width:0.22px;"/>
    </g>
    <g id="outer-cut" serif:id="outer cut" transform="matrix(4.57031,0,0,7.8,-456.524,-2031.5)">
        <rect x="112.81" y="268.019" width="193.822" height="136.281" style="fill:none;stroke:rgb(255,0,0);stroke-width:0.16px;"/>
    </g>
    <g id="scd40" transform="matrix(4.16667,0,0,4.16667,-1712.08,-461.396)">
        <g transform="matrix(1,0,0,1,537.709,259.421)">
            <path d="M0,3.964L0,3.64L0.414,3.238C1.409,2.291 1.859,1.787 1.865,1.199C1.865,0.804 1.673,0.438 1.092,0.438C0.737,0.438 0.443,0.618 0.264,0.768L0.096,0.396C0.366,0.168 0.75,0 1.199,0C2.039,0 2.393,0.576 2.393,1.133C2.393,1.853 1.871,2.435 1.05,3.226L0.737,3.514L0.737,3.526L2.488,3.526L2.488,3.964L0,3.964Z" style="fill:rgb(35,31,32);fill-rule:nonzero;stroke:rgb(0,0,255);stroke-width:0.24px;stroke-linecap:butt;stroke-miterlimit:2;"/>
        </g>
        <g transform="matrix(1,0,0,1,543.115,263.007)">
            <path d="M0,-3.076L-1.487,-3.076L-1.638,-2.075C-1.548,-2.087 -1.464,-2.098 -1.319,-2.098C-1.02,-2.098 -0.72,-2.033 -0.48,-1.889C-0.174,-1.715 0.077,-1.379 0.077,-0.887C0.077,-0.126 -0.528,0.444 -1.374,0.444C-1.8,0.444 -2.159,0.324 -2.345,0.204L-2.213,-0.198C-2.051,-0.102 -1.733,0.018 -1.38,0.018C-0.882,0.018 -0.456,-0.305 -0.456,-0.827C-0.462,-1.331 -0.798,-1.691 -1.577,-1.691C-1.8,-1.691 -1.974,-1.667 -2.117,-1.649L-1.865,-3.52L0,-3.52L0,-3.076Z" style="fill:rgb(35,31,32);fill-rule:nonzero;stroke:rgb(0,0,255);stroke-width:0.24px;stroke-linecap:butt;stroke-miterlimit:2;"/>
        </g>
        <g transform="matrix(0,1,1,0,544.265,262.717)">
            <path d="M0.356,-0.357C0.134,-0.357 -0.021,-0.208 -0.021,0.002C-0.021,0.212 0.134,0.356 0.356,0.356C0.572,0.356 0.734,0.218 0.734,-0.003C0.734,-0.213 0.572,-0.357 0.356,-0.357" style="fill:rgb(35,31,32);fill-rule:nonzero;stroke:rgb(0,0,255);stroke-width:0.24px;stroke-linecap:butt;stroke-miterlimit:2;"/>
        </g>
        <g transform="matrix(1,0,0,1,549.625,262.534)">
            <path d="M0,-1.265C0,-1.565 -0.007,-1.811 -0.024,-2.051L0.437,-2.051L0.461,-1.583L0.479,-1.583C0.642,-1.859 0.911,-2.117 1.391,-2.117C1.786,-2.117 2.086,-1.877 2.212,-1.535L2.225,-1.535C2.314,-1.697 2.428,-1.823 2.548,-1.913C2.722,-2.045 2.914,-2.117 3.189,-2.117C3.573,-2.117 4.144,-1.865 4.144,-0.857L4.144,0.852L3.628,0.852L3.628,-0.791C3.628,-1.349 3.424,-1.685 2.998,-1.685C2.698,-1.685 2.464,-1.463 2.374,-1.205C2.351,-1.133 2.332,-1.037 2.332,-0.941L2.332,0.852L1.816,0.852L1.816,-0.888C1.816,-1.349 1.612,-1.685 1.211,-1.685C0.881,-1.685 0.642,-1.421 0.558,-1.157C0.527,-1.079 0.516,-0.989 0.516,-0.899L0.516,0.852L0,0.852L0,-1.265Z" style="fill:rgb(35,31,32);fill-rule:nonzero;stroke:rgb(0,0,255);stroke-width:0.24px;stroke-linecap:butt;stroke-miterlimit:2;"/>
        </g>
        <g transform="matrix(1,0,0,1,554.629,262.534)">
            <path d="M0,-1.265C0,-1.565 -0.007,-1.811 -0.024,-2.051L0.437,-2.051L0.461,-1.583L0.479,-1.583C0.642,-1.859 0.911,-2.117 1.391,-2.117C1.786,-2.117 2.086,-1.877 2.212,-1.535L2.225,-1.535C2.314,-1.697 2.428,-1.823 2.548,-1.913C2.722,-2.045 2.914,-2.117 3.189,-2.117C3.573,-2.117 4.144,-1.865 4.144,-0.857L4.144,0.852L3.628,0.852L3.628,-0.791C3.628,-1.349 3.424,-1.685 2.998,-1.685C2.698,-1.685 2.464,-1.463 2.374,-1.205C2.351,-1.133 2.332,-1.037 2.332,-0.941L2.332,0.852L1.816,0.852L1.816,-0.888C1.816,-1.349 1.612,-1.685 1.211,-1.685C0.881,-1.685 0.642,-1.421 0.558,-1.157C0.527,-1.079 0.516,-0.989 0.516,-0.899L0.516,0.852L0,0.852L0,-1.265Z" style="fill:rgb(35,31,32);fill-rule:nonzero;stroke:rgb(0,0,255);stroke-width:0.24px;stroke-linecap:butt;stroke-miterlimit:2;"/>
        </g>
        <g transform="matrix(1,0,0,1,562.05,264.111)">
            <path d="M0,-4.887C-0.437,-4.3 -0.756,-3.52 -0.756,-2.434C-0.756,-1.367 -0.426,-0.599 0,0L-0.414,0C-0.792,-0.497 -1.199,-1.265 -1.199,-2.434C-1.193,-3.616 -0.792,-4.384 -0.414,-4.887L0,-4.887Z" style="fill:rgb(35,31,32);fill-rule:nonzero;stroke:rgb(0,0,255);stroke-width:0.24px;stroke-linecap:butt;stroke-miterlimit:2;"/>
        </g>
        <g transform="matrix(1,0,0,1,563.586,262.893)">
            <path d="M0,-2.914L-0.012,-2.914L-0.689,-2.548L-0.792,-2.95L0.06,-3.406L0.51,-3.406L0.51,0.492L0,0.492L0,-2.914Z" style="fill:rgb(35,31,32);fill-rule:nonzero;stroke:rgb(0,0,255);stroke-width:0.24px;stroke-linecap:butt;stroke-miterlimit:2;"/>
        </g>
        <g transform="matrix(0,1,1,0,565.918,262.717)">
            <path d="M0.357,-0.358C0.134,-0.358 -0.021,-0.207 -0.021,0.002C-0.021,0.212 0.134,0.357 0.357,0.357C0.573,0.357 0.734,0.219 0.734,-0.004C0.734,-0.213 0.573,-0.358 0.357,-0.358" style="fill:rgb(35,31,32);fill-rule:nonzero;stroke:rgb(0,0,255);stroke-width:0.24px;stroke-linecap:butt;stroke-miterlimit:2;"/>
        </g>
        <g transform="matrix(1,0,0,1,567.235,261.418)">
            <path d="M0,0.036C0,1.05 0.312,1.625 0.791,1.625C1.331,1.625 1.589,0.995 1.589,-0C1.589,-0.959 1.343,-1.589 0.797,-1.589C0.336,-1.589 0,-1.025 0,0.036M2.116,-0.024C2.116,1.302 1.625,2.033 0.762,2.033C0,2.033 -0.516,1.32 -0.528,0.03C-0.528,-1.277 0.036,-1.997 0.827,-1.997C1.648,-1.997 2.116,-1.265 2.116,-0.024" style="fill:rgb(35,31,32);fill-rule:nonzero;stroke:rgb(0,0,255);stroke-width:0.24px;stroke-linecap:butt;stroke-miterlimit:2;"/>
        </g>
        <g transform="matrix(1,0,0,1,-46.066,-68.9192)">
            <path d="M617.345,329.402L617.872,329.402L617.872,332.304L617.345,332.304L617.345,329.402ZM617.933,328.587C617.938,328.766 617.807,328.91 617.597,328.91C617.411,328.91 617.278,328.766 617.278,328.587C617.278,328.401 617.417,328.257 617.608,328.257C617.807,328.257 617.933,328.401 617.933,328.587" style="fill:rgb(35,31,32);fill-rule:nonzero;stroke:rgb(0,0,255);stroke-width:0.24px;stroke-linecap:butt;stroke-miterlimit:2;"/>
        </g>
        <g transform="matrix(1,0,0,1,572.683,262.534)">
            <path d="M0,-1.265C0,-1.565 -0.007,-1.811 -0.024,-2.051L0.443,-2.051L0.474,-1.571L0.485,-1.571C0.629,-1.847 0.965,-2.117 1.444,-2.117C1.847,-2.117 2.47,-1.877 2.47,-0.881L2.47,0.852L1.942,0.852L1.942,-0.821C1.942,-1.289 1.769,-1.679 1.271,-1.679C0.923,-1.679 0.653,-1.433 0.563,-1.139C0.539,-1.073 0.527,-0.983 0.527,-0.893L0.527,0.852L0,0.852L0,-1.265Z" style="fill:rgb(35,31,32);fill-rule:nonzero;stroke:rgb(0,0,255);stroke-width:0.24px;stroke-linecap:butt;stroke-miterlimit:2;"/>
        </g>
        <g transform="matrix(1,0,0,1,575.695,259.224)">
            <path d="M0,4.887C0.426,4.293 0.756,3.514 0.756,2.434C0.756,1.361 0.432,0.594 0,0L0.408,0C0.792,0.491 1.193,1.259 1.193,2.44C1.193,3.616 0.792,4.377 0.408,4.887L0,4.887Z" style="fill:rgb(35,31,32);fill-rule:nonzero;stroke:rgb(0,0,255);stroke-width:0.24px;stroke-linecap:butt;stroke-miterlimit:2;"/>
        </g>
        <g transform="matrix(-1,0,0,1,1156.64,2.03584)">
            <rect x="565.353" y="262.403" width="72" height="64.8" style="fill:white;stroke:rgb(0,255,0);stroke-width:0.24px;stroke-linecap:butt;stroke-linejoin:miter;stroke-miterlimit:10;"/>
        </g>
        <g transform="matrix(-1,0,0,1,1156.64,2.03584)">
            <rect x="572.553" y="269.603" width="57.6" height="50.4" style="fill:white;stroke:rgb(0,255,0);stroke-width:0.24px;stroke-linecap:butt;stroke-linejoin:miter;stroke-miterlimit:10;"/>
        </g>
        <g transform="matrix(0,-1,-1,0,526.487,268.039)">
            <circle cx="-3.6" cy="0" r="3.6" style="fill:none;stroke:rgb(255,0,0);stroke-width:0.24px;stroke-linecap:butt;stroke-linejoin:miter;stroke-miterlimit:10;"/>
        </g>
        <g transform="matrix(0,-1,-1,0,584.087,318.439)">
            <circle cx="-3.6" cy="0" r="3.6" style="fill:none;stroke:rgb(255,0,0);stroke-width:0.24px;stroke-linecap:butt;stroke-linejoin:miter;stroke-miterlimit:10;"/>
        </g>
        <g transform="matrix(0,-1,-1,0,526.487,318.439)">
            <circle cx="-3.6" cy="0" r="3.6" style="fill:none;stroke:rgb(255,0,0);stroke-width:0.24px;stroke-linecap:butt;stroke-linejoin:miter;stroke-miterlimit:10;"/>
        </g>
        <g transform="matrix(0,-1,-1,0,584.087,268.039)">
            <circle cx="-3.6" cy="0" r="3.6" style="fill:none;stroke:rgb(255,0,0);stroke-width:0.24px;stroke-linecap:butt;stroke-linejoin:miter;stroke-miterlimit:10;"/>
        </g>
        <g transform="matrix(1,0,0,1,535.419,274.042)">
            <path d="M0,3.964L0,3.64L0.413,3.238C1.409,2.291 1.858,1.787 1.864,1.199C1.864,0.804 1.673,0.438 1.091,0.438C0.737,0.438 0.443,0.618 0.264,0.768L0.096,0.396C0.366,0.168 0.749,0 1.199,0C2.038,0 2.393,0.576 2.393,1.133C2.393,1.853 1.87,2.435 1.05,3.226L0.737,3.514L0.737,3.526L2.488,3.526L2.488,3.964L0,3.964Z" style="fill:rgb(35,31,32);fill-rule:nonzero;stroke:rgb(0,0,255);stroke-width:0.24px;stroke-linecap:butt;stroke-miterlimit:2;"/>
        </g>
        <g transform="matrix(1,0,0,1,538.971,276.039)">
            <path d="M0,0.036C0,1.05 0.312,1.625 0.791,1.625C1.331,1.625 1.589,0.995 1.589,-0C1.589,-0.959 1.344,-1.589 0.797,-1.589C0.336,-1.589 0,-1.025 0,0.036M2.117,-0.024C2.117,1.302 1.625,2.033 0.762,2.033C0,2.033 -0.516,1.32 -0.527,0.03C-0.527,-1.277 0.036,-1.997 0.828,-1.997C1.648,-1.997 2.117,-1.265 2.117,-0.024" style="fill:rgb(35,31,32);fill-rule:nonzero;stroke:rgb(0,0,255);stroke-width:0.24px;stroke-linecap:butt;stroke-miterlimit:2;"/>
        </g>
        <g transform="matrix(0,1,1,0,541.975,277.338)">
            <path d="M0.356,-0.357C0.134,-0.357 -0.021,-0.208 -0.021,0.002C-0.021,0.211 0.134,0.356 0.356,0.356C0.572,0.356 0.734,0.218 0.734,-0.003C0.734,-0.214 0.572,-0.357 0.356,-0.357" style="fill:rgb(35,31,32);fill-rule:nonzero;stroke:rgb(0,0,255);stroke-width:0.24px;stroke-linecap:butt;stroke-miterlimit:2;"/>
        </g>
        <g transform="matrix(1,0,0,1,542.944,274.714)">
            <path d="M0,2.687C0.149,2.783 0.497,2.933 0.863,2.933C1.541,2.933 1.75,2.501 1.744,2.177C1.738,1.631 1.246,1.397 0.736,1.397L0.443,1.397L0.443,1.002L0.736,1.002C1.121,1.002 1.606,0.804 1.606,0.342C1.606,0.03 1.408,-0.246 0.923,-0.246C0.611,-0.246 0.311,-0.107 0.143,0.012L0.006,-0.372C0.209,-0.521 0.605,-0.671 1.025,-0.671C1.793,-0.671 2.141,-0.216 2.141,0.258C2.141,0.66 1.9,1.002 1.42,1.176L1.42,1.187C1.9,1.284 2.29,1.644 2.29,2.189C2.29,2.812 1.805,3.358 0.869,3.358C0.432,3.358 0.047,3.221 -0.145,3.095L0,2.687Z" style="fill:rgb(35,31,32);fill-rule:nonzero;stroke:rgb(0,0,255);stroke-width:0.24px;stroke-linecap:butt;stroke-miterlimit:2;"/>
        </g>
        <g transform="matrix(1,0,0,1,545.895,274.042)">
            <path d="M0,3.964L0,3.64L0.414,3.238C1.409,2.291 1.859,1.787 1.865,1.199C1.865,0.804 1.673,0.438 1.092,0.438C0.737,0.438 0.443,0.618 0.264,0.768L0.096,0.396C0.365,0.168 0.75,0 1.199,0C2.039,0 2.393,0.576 2.393,1.133C2.393,1.853 1.871,2.435 1.049,3.226L0.737,3.514L0.737,3.526L2.488,3.526L2.488,3.964L0,3.964Z" style="fill:rgb(35,31,32);fill-rule:nonzero;stroke:rgb(0,0,255);stroke-width:0.24px;stroke-linecap:butt;stroke-miterlimit:2;"/>
        </g>
        <g transform="matrix(1,0,0,1,550.412,277.155)">
            <path d="M0,-1.265C0,-1.565 -0.006,-1.811 -0.023,-2.051L0.437,-2.051L0.462,-1.583L0.48,-1.583C0.643,-1.859 0.912,-2.117 1.392,-2.117C1.787,-2.117 2.087,-1.877 2.213,-1.535L2.225,-1.535C2.314,-1.697 2.429,-1.823 2.549,-1.913C2.723,-2.045 2.914,-2.117 3.19,-2.117C3.574,-2.117 4.145,-1.865 4.145,-0.857L4.145,0.852L3.629,0.852L3.629,-0.791C3.629,-1.349 3.424,-1.685 2.998,-1.685C2.699,-1.685 2.465,-1.463 2.375,-1.205C2.352,-1.133 2.333,-1.037 2.333,-0.941L2.333,0.852L1.817,0.852L1.817,-0.888C1.817,-1.349 1.613,-1.685 1.211,-1.685C0.882,-1.685 0.643,-1.421 0.559,-1.157C0.527,-1.079 0.516,-0.989 0.516,-0.899L0.516,0.852L0,0.852L0,-1.265Z" style="fill:rgb(35,31,32);fill-rule:nonzero;stroke:rgb(0,0,255);stroke-width:0.24px;stroke-linecap:butt;stroke-miterlimit:2;"/>
        </g>
        <g transform="matrix(1,0,0,1,555.416,277.155)">
            <path d="M0,-1.265C0,-1.565 -0.006,-1.811 -0.023,-2.051L0.437,-2.051L0.462,-1.583L0.48,-1.583C0.643,-1.859 0.912,-2.117 1.392,-2.117C1.787,-2.117 2.087,-1.877 2.213,-1.535L2.225,-1.535C2.314,-1.697 2.429,-1.823 2.549,-1.913C2.723,-2.045 2.914,-2.117 3.19,-2.117C3.574,-2.117 4.145,-1.865 4.145,-0.857L4.145,0.852L3.629,0.852L3.629,-0.791C3.629,-1.349 3.424,-1.685 2.998,-1.685C2.699,-1.685 2.465,-1.463 2.375,-1.205C2.352,-1.133 2.333,-1.037 2.333,-0.941L2.333,0.852L1.817,0.852L1.817,-0.888C1.817,-1.349 1.613,-1.685 1.211,-1.685C0.882,-1.685 0.643,-1.421 0.559,-1.157C0.527,-1.079 0.516,-0.989 0.516,-0.899L0.516,0.852L0,0.852L0,-1.265Z" style="fill:rgb(35,31,32);fill-rule:nonzero;stroke:rgb(0,0,255);stroke-width:0.24px;stroke-linecap:butt;stroke-miterlimit:2;"/>
        </g>
        <g transform="matrix(1,0,0,1,562.838,278.732)">
            <path d="M0,-4.887C-0.437,-4.3 -0.756,-3.52 -0.756,-2.434C-0.756,-1.367 -0.426,-0.599 0,0L-0.414,0C-0.792,-0.497 -1.199,-1.265 -1.199,-2.434C-1.193,-3.616 -0.792,-4.384 -0.414,-4.887L0,-4.887Z" style="fill:rgb(35,31,32);fill-rule:nonzero;stroke:rgb(0,0,255);stroke-width:0.24px;stroke-linecap:butt;stroke-miterlimit:2;"/>
        </g>
        <g transform="matrix(1,0,0,1,563.703,276.039)">
            <path d="M0,0.036C0,1.05 0.312,1.625 0.792,1.625C1.331,1.625 1.589,0.995 1.589,-0C1.589,-0.959 1.343,-1.589 0.798,-1.589C0.336,-1.589 0,-1.025 0,0.036M2.116,-0.024C2.116,1.302 1.625,2.033 0.762,2.033C0,2.033 -0.516,1.32 -0.528,0.03C-0.528,-1.277 0.036,-1.997 0.827,-1.997C1.649,-1.997 2.116,-1.265 2.116,-0.024" style="fill:rgb(35,31,32);fill-rule:nonzero;stroke:rgb(0,0,255);stroke-width:0.24px;stroke-linecap:butt;stroke-miterlimit:2;"/>
        </g>
        <g transform="matrix(0,1,1,0,566.706,277.338)">
            <path d="M0.357,-0.358C0.134,-0.358 -0.021,-0.207 -0.021,0.003C-0.021,0.213 0.134,0.357 0.357,0.357C0.573,0.357 0.734,0.219 0.734,-0.004C0.734,-0.212 0.573,-0.358 0.357,-0.358" style="fill:rgb(35,31,32);fill-rule:nonzero;stroke:rgb(0,0,255);stroke-width:0.24px;stroke-linecap:butt;stroke-miterlimit:2;"/>
        </g>
        <g transform="matrix(1,0,0,1,568.149,277.071)">
            <path d="M0,-2.027C0,-1.637 0.293,-1.427 0.743,-1.307C1.078,-1.422 1.337,-1.661 1.337,-2.015C1.337,-2.327 1.15,-2.651 0.678,-2.651C0.239,-2.651 0,-2.363 0,-2.027M1.451,-0.078C1.451,-0.552 1.121,-0.779 0.594,-0.929C0.137,-0.798 -0.108,-0.498 -0.108,-0.126C-0.127,0.27 0.174,0.618 0.671,0.618C1.145,0.618 1.451,0.324 1.451,-0.078M-0.648,-0.054C-0.648,-0.546 -0.354,-0.894 0.125,-1.097L0.119,-1.115C-0.312,-1.319 -0.498,-1.655 -0.498,-1.991C-0.498,-2.609 0.023,-3.028 0.707,-3.028C1.463,-3.028 1.84,-2.555 1.84,-2.069C1.84,-1.739 1.679,-1.385 1.199,-1.157L1.199,-1.139C1.685,-0.947 1.984,-0.606 1.984,-0.132C1.984,0.546 1.402,1.001 0.659,1.001C-0.156,1.001 -0.648,0.515 -0.648,-0.054" style="fill:rgb(35,31,32);fill-rule:nonzero;stroke:rgb(0,0,255);stroke-width:0.24px;stroke-linecap:butt;stroke-miterlimit:2;"/>
        </g>
        <g transform="matrix(1,0,0,1,-46.066,-39.6772)">
            <path d="M618.133,314.781L618.66,314.781L618.66,317.683L618.133,317.683L618.133,314.781ZM618.72,313.966C618.726,314.145 618.594,314.29 618.384,314.29C618.198,314.29 618.066,314.145 618.066,313.966C618.066,313.78 618.204,313.636 618.396,313.636C618.594,313.636 618.72,313.78 618.72,313.966" style="fill:rgb(35,31,32);fill-rule:nonzero;stroke:rgb(0,0,255);stroke-width:0.24px;stroke-linecap:butt;stroke-miterlimit:2;"/>
        </g>
        <g transform="matrix(1,0,0,1,573.471,277.155)">
            <path d="M0,-1.265C0,-1.565 -0.007,-1.811 -0.025,-2.051L0.443,-2.051L0.473,-1.571L0.484,-1.571C0.629,-1.847 0.965,-2.117 1.444,-2.117C1.846,-2.117 2.47,-1.877 2.47,-0.881L2.47,0.852L1.942,0.852L1.942,-0.821C1.942,-1.289 1.769,-1.679 1.271,-1.679C0.923,-1.679 0.652,-1.433 0.562,-1.139C0.539,-1.073 0.527,-0.983 0.527,-0.893L0.527,0.852L0,0.852L0,-1.265Z" style="fill:rgb(35,31,32);fill-rule:nonzero;stroke:rgb(0,0,255);stroke-width:0.24px;stroke-linecap:butt;stroke-miterlimit:2;"/>
        </g>
        <g transform="matrix(1,0,0,1,576.483,273.845)">
            <path d="M0,4.887C0.426,4.293 0.755,3.514 0.755,2.434C0.755,1.361 0.432,0.594 0,0L0.407,0C0.791,0.491 1.193,1.259 1.193,2.44C1.193,3.616 0.791,4.377 0.407,4.887L0,4.887Z" style="fill:rgb(35,31,32);fill-rule:nonzero;stroke:rgb(0,0,255);stroke-width:0.24px;stroke-linecap:butt;stroke-miterlimit:2;"/>
        </g>
        <g transform="matrix(1,0,0,1,529.685,316.856)">
            <path d="M0,-0.281L0,-0.269L0.366,0.408L-0.036,0.51L-0.492,-0.342L-0.492,-0.791L3.406,-0.791L3.406,-0.281L0,-0.281Z" style="fill:rgb(35,31,32);fill-rule:nonzero;stroke:rgb(0,0,255);stroke-width:0.24px;stroke-linecap:butt;stroke-miterlimit:2;"/>
        </g>
        <g transform="matrix(1,0,0,1,529.193,314.569)">
            <path d="M0,-2.458L0.348,-2.458L3.898,-0.762L3.898,-0.215L0.45,-1.906L0.438,-1.906L0.438,0L0,0L0,-2.458Z" style="fill:rgb(35,31,32);fill-rule:nonzero;stroke:rgb(0,0,255);stroke-width:0.24px;stroke-linecap:butt;stroke-miterlimit:2;"/>
        </g>
        <g transform="matrix(1,0,0,1,532.779,310.809)">
            <path d="M0,0.714C-0.222,0.714 -0.377,0.564 -0.377,0.354C-0.377,0.144 -0.222,0 0,0C0.216,0 0.378,0.138 0.378,0.36C0.378,0.569 0.216,0.714 0,0.714" style="fill:rgb(35,31,32);fill-rule:nonzero;stroke:rgb(0,0,255);stroke-width:0.24px;stroke-linecap:butt;stroke-miterlimit:2;"/>
        </g>
        <g transform="matrix(1,0,0,1,529.193,310.25)">
            <path d="M0,-2.458L0.348,-2.458L3.898,-0.762L3.898,-0.216L0.45,-1.907L0.438,-1.907L0.438,0L0,0L0,-2.458Z" style="fill:rgb(35,31,32);fill-rule:nonzero;stroke:rgb(0,0,255);stroke-width:0.24px;stroke-linecap:butt;stroke-miterlimit:2;"/>
        </g>
        <g transform="matrix(1,0,0,1,532.077,306.758)">
            <path d="M0,-1.565C-0.474,-1.565 -0.701,-1.235 -0.851,-0.708C-0.719,-0.252 -0.419,-0.005 -0.048,-0.005C0.348,0.012 0.696,-0.288 0.696,-0.785C0.696,-1.259 0.402,-1.565 0,-1.565M-1.949,-0.114C-1.559,-0.114 -1.349,-0.408 -1.229,-0.857C-1.343,-1.193 -1.583,-1.451 -1.937,-1.451C-2.249,-1.451 -2.572,-1.265 -2.572,-0.792C-2.572,-0.353 -2.285,-0.114 -1.949,-0.114M0.024,0.534C-0.467,0.534 -0.815,0.241 -1.019,-0.24L-1.037,-0.234C-1.241,0.198 -1.577,0.384 -1.913,0.384C-2.53,0.384 -2.95,-0.138 -2.95,-0.822C-2.95,-1.577 -2.477,-1.955 -1.991,-1.955C-1.661,-1.955 -1.307,-1.793 -1.079,-1.313L-1.061,-1.313C-0.869,-1.798 -0.527,-2.099 -0.054,-2.099C0.624,-2.099 1.08,-1.517 1.08,-0.773C1.08,0.042 0.594,0.534 0.024,0.534" style="fill:rgb(35,31,32);fill-rule:nonzero;stroke:rgb(0,0,255);stroke-width:0.24px;stroke-linecap:butt;stroke-miterlimit:2;"/>
        </g>
        <g transform="matrix(1,0,0,1,530.974,299.878)">
            <path d="M0,4.12C-0.3,4.12 -0.546,4.127 -0.786,4.144L-0.786,3.683L-0.318,3.658L-0.318,3.641C-0.594,3.478 -0.852,3.209 -0.852,2.728C-0.852,2.334 -0.612,2.033 -0.27,1.908L-0.27,1.895C-0.432,1.806 -0.558,1.691 -0.648,1.572C-0.78,1.398 -0.852,1.206 -0.852,0.93C-0.852,0.547 -0.6,-0.024 0.408,-0.024L2.117,-0.024L2.117,0.492L0.474,0.492C-0.084,0.492 -0.42,0.696 -0.42,1.122C-0.42,1.422 -0.198,1.656 0.06,1.746C0.132,1.769 0.228,1.787 0.324,1.787L2.117,1.787L2.117,2.303L0.377,2.303C-0.084,2.303 -0.42,2.508 -0.42,2.909C-0.42,3.238 -0.156,3.478 0.108,3.562C0.186,3.593 0.276,3.604 0.366,3.604L2.117,3.604L2.117,4.12L0,4.12Z" style="fill:rgb(35,31,32);fill-rule:nonzero;stroke:rgb(0,0,255);stroke-width:0.24px;stroke-linecap:butt;stroke-miterlimit:2;"/>
        </g>
        <g transform="matrix(1,0,0,1,530.974,294.874)">
            <path d="M0,4.12C-0.3,4.12 -0.546,4.127 -0.786,4.144L-0.786,3.683L-0.318,3.658L-0.318,3.641C-0.594,3.478 -0.852,3.209 -0.852,2.728C-0.852,2.334 -0.612,2.033 -0.27,1.908L-0.27,1.895C-0.432,1.806 -0.558,1.691 -0.648,1.572C-0.78,1.398 -0.852,1.206 -0.852,0.93C-0.852,0.547 -0.6,-0.024 0.408,-0.024L2.117,-0.024L2.117,0.492L0.474,0.492C-0.084,0.492 -0.42,0.696 -0.42,1.122C-0.42,1.422 -0.198,1.656 0.06,1.746C0.132,1.769 0.228,1.787 0.324,1.787L2.117,1.787L2.117,2.303L0.377,2.303C-0.084,2.303 -0.42,2.508 -0.42,2.909C-0.42,3.238 -0.156,3.478 0.108,3.562C0.186,3.593 0.276,3.604 0.366,3.604L2.117,3.604L2.117,4.12L0,4.12Z" style="fill:rgb(35,31,32);fill-rule:nonzero;stroke:rgb(0,0,255);stroke-width:0.24px;stroke-linecap:butt;stroke-miterlimit:2;"/>
        </g>
        <g transform="matrix(1,0,0,1,533.817,278.008)">
            <path d="M0,1.193C-0.594,0.767 -1.373,0.438 -2.453,0.438C-3.526,0.438 -4.293,0.761 -4.887,1.193L-4.887,0.785C-4.396,0.401 -3.628,0 -2.447,0C-1.271,0 -0.51,0.401 0,0.785L0,1.193Z" style="fill:rgb(35,31,32);fill-rule:nonzero;stroke:rgb(0,0,255);stroke-width:0.24px;stroke-linecap:butt;stroke-miterlimit:2;"/>
        </g>
        <g transform="matrix(1,0,0,1,528.929,292.772)">
            <path d="M0,-1.199C0.587,-0.762 1.367,-0.444 2.453,-0.444C3.52,-0.444 4.288,-0.773 4.887,-1.199L4.887,-0.785C4.39,-0.407 3.622,0 2.453,0C1.271,-0.006 0.503,-0.407 0,-0.785L0,-1.199Z" style="fill:rgb(35,31,32);fill-rule:nonzero;stroke:rgb(0,0,255);stroke-width:0.24px;stroke-linecap:butt;stroke-miterlimit:2;"/>
        </g>
        <g transform="matrix(1,0,0,1,531.16,289.12)">
            <path d="M0,1.589C1.014,1.589 1.589,1.277 1.589,0.797C1.589,0.258 0.959,0 -0.036,0C-0.995,0 -1.625,0.246 -1.625,0.792C-1.625,1.253 -1.061,1.589 0,1.589M-0.06,-0.528C1.266,-0.528 1.997,-0.036 1.997,0.827C1.997,1.589 1.284,2.105 -0.006,2.117C-1.313,2.117 -2.033,1.553 -2.033,0.761C-2.033,-0.06 -1.301,-0.528 -0.06,-0.528" style="fill:rgb(35,31,32);fill-rule:nonzero;stroke:rgb(0,0,255);stroke-width:0.24px;stroke-linecap:butt;stroke-miterlimit:2;"/>
        </g>
        <g transform="matrix(1,0,0,1,532.779,287.35)">
            <path d="M0,0.713C-0.222,0.713 -0.377,0.563 -0.377,0.354C-0.377,0.144 -0.222,0 0,0C0.216,0 0.378,0.137 0.378,0.359C0.378,0.569 0.216,0.713 0,0.713" style="fill:rgb(35,31,32);fill-rule:nonzero;stroke:rgb(0,0,255);stroke-width:0.24px;stroke-linecap:butt;stroke-miterlimit:2;"/>
        </g>
        <g transform="matrix(1,0,0,1,529.193,286.79)">
            <path d="M0,-2.458L0.348,-2.458L3.898,-0.761L3.898,-0.215L0.45,-1.906L0.438,-1.906L0.438,0L0,0L0,-2.458Z" style="fill:rgb(35,31,32);fill-rule:nonzero;stroke:rgb(0,0,255);stroke-width:0.24px;stroke-linecap:butt;stroke-miterlimit:2;"/>
        </g>
        <g transform="matrix(1,0,0,1,113.574,-24.9352)">
            <path d="M419.517,308.552L416.615,308.552L416.615,308.025L419.517,308.025L419.517,308.552ZM415.799,307.965C415.979,307.959 416.123,308.09 416.123,308.3C416.123,308.486 415.979,308.618 415.799,308.618C415.613,308.618 415.469,308.48 415.469,308.288C415.469,308.09 415.613,307.965 415.799,307.965" style="fill:rgb(35,31,32);fill-rule:nonzero;stroke:rgb(0,0,255);stroke-width:0.24px;stroke-linecap:butt;stroke-miterlimit:2;"/>
        </g>
        <g transform="matrix(1,0,0,1,530.974,279.766)">
            <path d="M0,2.446C-0.3,2.446 -0.546,2.452 -0.786,2.47L-0.786,2.003L-0.306,1.972L-0.306,1.961C-0.582,1.817 -0.852,1.481 -0.852,1.001C-0.852,0.599 -0.612,-0.024 0.384,-0.024L2.117,-0.024L2.117,0.503L0.444,0.503C-0.024,0.503 -0.414,0.677 -0.414,1.175C-0.414,1.523 -0.168,1.793 0.126,1.883C0.192,1.906 0.282,1.919 0.372,1.919L2.117,1.919L2.117,2.446L0,2.446Z" style="fill:rgb(35,31,32);fill-rule:nonzero;stroke:rgb(0,0,255);stroke-width:0.24px;stroke-linecap:butt;stroke-miterlimit:2;"/>
        </g>
    </g>
    <g id="sen54-adapter" serif:id="sen54 adapter" transform="matrix(4.16667,0,0,4.16667,-2223.89,-220.633)">
        <g transform="matrix(-1,0,0,0.777778,1191.23,63.0218)">
            <rect x="565.353" y="262.403" width="72" height="64.8" style="fill:white;stroke:rgb(0,255,0);stroke-width:0.27px;stroke-linecap:butt;stroke-linejoin:miter;stroke-miterlimit:10;"/>
        </g>
        <g transform="matrix(-1,0,0,0.714286,1191.23,81.7394)">
            <rect x="572.553" y="269.603" width="57.6" height="50.4" style="fill:white;stroke:rgb(0,255,0);stroke-width:0.28px;stroke-linecap:butt;stroke-linejoin:miter;stroke-miterlimit:10;"/>
        </g>
        <g transform="matrix(0,-1,-1,0,561.073,270.713)">
            <circle cx="-3.6" cy="0" r="3.6" style="fill:none;stroke:rgb(255,0,0);stroke-width:0.24px;stroke-linecap:butt;stroke-linejoin:miter;stroke-miterlimit:10;"/>
        </g>
        <g transform="matrix(0,-1,-1,0,618.673,306.747)">
            <circle cx="-3.6" cy="0" r="3.6" style="fill:none;stroke:rgb(255,0,0);stroke-width:0.24px;stroke-linecap:butt;stroke-linejoin:miter;stroke-miterlimit:10;"/>
        </g>
        <g transform="matrix(0,-1,-1,0,561.073,306.747)">
            <circle cx="-3.6" cy="0" r="3.6" style="fill:none;stroke:rgb(255,0,0);stroke-width:0.24px;stroke-linecap:butt;stroke-linejoin:miter;stroke-miterlimit:10;"/>
        </g>
        <g transform="matrix(0,-1,-1,0,618.673,270.713)">
            <circle cx="-3.6" cy="0" r="3.6" style="fill:none;stroke:rgb(255,0,0);stroke-width:0.24px;stroke-linecap:butt;stroke-linejoin:miter;stroke-miterlimit:10;"/>
        </g>
    </g>
</svg>
